<mxfile host="app.diagrams.net" modified="2022-11-26T15:27:33.631Z" agent="5.0 (Windows)" etag="UFV-gSraoup0ut8I3_0u" version="20.6.0" type="github">
  <diagram name="Page-1" id="197159a0-c6a4-9194-75a8-e4174976684c">
    <mxGraphModel dx="1940" dy="1203" grid="1" gridSize="10" guides="1" tooltips="1" connect="1" arrows="1" fold="1" page="1" pageScale="1.5" pageWidth="1169" pageHeight="826" background="none" math="0" shadow="0">
      <root>
        <mxCell id="0" style=";html=1;" />
        <mxCell id="1" style=";html=1;" parent="0" />
        <mxCell id="W4bVx6RVuENENXrzzhZ2-67" value="" style="rounded=1;whiteSpace=wrap;html=1;sketch=0;fillStyle=auto;fontSize=17;fillColor=none;dashed=1;strokeWidth=2;" vertex="1" parent="1">
          <mxGeometry x="596" y="60" width="660" height="660" as="geometry" />
        </mxCell>
        <mxCell id="W4bVx6RVuENENXrzzhZ2-21" value="Internet" style="html=1;verticalLabelPosition=bottom;align=center;labelBackgroundColor=#ffffff;verticalAlign=top;strokeWidth=2;strokeColor=#0080F0;shadow=0;dashed=0;shape=mxgraph.ios7.icons.cloud;fontSize=17;" vertex="1" parent="1">
          <mxGeometry x="257" y="310" width="230" height="130" as="geometry" />
        </mxCell>
        <mxCell id="W4bVx6RVuENENXrzzhZ2-42" value="" style="group;fontSize=17;" vertex="1" connectable="0" parent="1">
          <mxGeometry x="1097" y="250" width="100" height="110" as="geometry" />
        </mxCell>
        <mxCell id="W4bVx6RVuENENXrzzhZ2-23" value="docker" style="sketch=0;shadow=0;dashed=0;html=1;labelPosition=center;verticalLabelPosition=bottom;verticalAlign=top;align=center;outlineConnect=0;shape=mxgraph.veeam.3d.virtual_machine;fontSize=17;" vertex="1" parent="W4bVx6RVuENENXrzzhZ2-42">
          <mxGeometry width="100" height="110" as="geometry" />
        </mxCell>
        <mxCell id="W4bVx6RVuENENXrzzhZ2-41" value="" style="shape=image;html=1;verticalAlign=top;verticalLabelPosition=bottom;labelBackgroundColor=#ffffff;imageAspect=0;aspect=fixed;image=https://cdn1.iconfinder.com/data/icons/ionicons-fill-vol-2/512/logo-docker-128.png;sketch=0;fillStyle=auto;fillColor=none;fontSize=17;" vertex="1" parent="W4bVx6RVuENENXrzzhZ2-42">
          <mxGeometry x="56" y="44" width="39" height="39" as="geometry" />
        </mxCell>
        <mxCell id="W4bVx6RVuENENXrzzhZ2-43" value="" style="group;fontSize=17;" vertex="1" connectable="0" parent="1">
          <mxGeometry x="968" y="565" width="100" height="110" as="geometry" />
        </mxCell>
        <mxCell id="W4bVx6RVuENENXrzzhZ2-31" value="mongo" style="sketch=0;shadow=0;dashed=0;html=1;labelPosition=center;verticalLabelPosition=bottom;verticalAlign=top;align=center;outlineConnect=0;shape=mxgraph.veeam.3d.virtual_machine;fontSize=17;" vertex="1" parent="W4bVx6RVuENENXrzzhZ2-43">
          <mxGeometry width="100" height="110" as="geometry" />
        </mxCell>
        <mxCell id="W4bVx6RVuENENXrzzhZ2-32" value="" style="dashed=0;outlineConnect=0;html=1;align=center;labelPosition=center;verticalLabelPosition=bottom;verticalAlign=top;shape=mxgraph.weblogos.mongodb;fontSize=17;" vertex="1" parent="W4bVx6RVuENENXrzzhZ2-43">
          <mxGeometry x="59" y="35" width="30" height="60" as="geometry" />
        </mxCell>
        <mxCell id="W4bVx6RVuENENXrzzhZ2-44" value="" style="group;fontSize=17;" vertex="1" connectable="0" parent="1">
          <mxGeometry x="1107" y="410" width="100" height="110" as="geometry" />
        </mxCell>
        <mxCell id="W4bVx6RVuENENXrzzhZ2-24" value="rabbit" style="sketch=0;shadow=0;dashed=0;html=1;labelPosition=center;verticalLabelPosition=bottom;verticalAlign=top;align=center;outlineConnect=0;shape=mxgraph.veeam.3d.virtual_machine;fontSize=17;" vertex="1" parent="W4bVx6RVuENENXrzzhZ2-44">
          <mxGeometry width="100" height="110" as="geometry" />
        </mxCell>
        <mxCell id="W4bVx6RVuENENXrzzhZ2-29" value="" style="shape=image;html=1;verticalAlign=top;verticalLabelPosition=bottom;labelBackgroundColor=#ffffff;imageAspect=0;aspect=fixed;image=https://cdn3.iconfinder.com/data/icons/animals-105/150/icon_animal_coelho-128.png;fontSize=17;" vertex="1" parent="W4bVx6RVuENENXrzzhZ2-44">
          <mxGeometry x="51" y="40" width="48" height="48" as="geometry" />
        </mxCell>
        <mxCell id="W4bVx6RVuENENXrzzhZ2-45" value="" style="group;fontSize=17;" vertex="1" connectable="0" parent="1">
          <mxGeometry x="964" y="90" width="100" height="110" as="geometry" />
        </mxCell>
        <mxCell id="W4bVx6RVuENENXrzzhZ2-22" value="gitlab" style="sketch=0;shadow=0;dashed=0;html=1;labelPosition=center;verticalLabelPosition=bottom;verticalAlign=top;align=center;outlineConnect=0;shape=mxgraph.veeam.3d.virtual_machine;fontSize=17;" vertex="1" parent="W4bVx6RVuENENXrzzhZ2-45">
          <mxGeometry width="100" height="110" as="geometry" />
        </mxCell>
        <mxCell id="W4bVx6RVuENENXrzzhZ2-36" value="" style="shape=image;html=1;verticalAlign=top;verticalLabelPosition=bottom;labelBackgroundColor=#ffffff;imageAspect=0;aspect=fixed;image=https://cdn1.iconfinder.com/data/icons/ionicons-fill-vol-2/512/logo-gitlab-128.png;sketch=0;fillStyle=auto;fillColor=none;fontSize=17;" vertex="1" parent="W4bVx6RVuENENXrzzhZ2-45">
          <mxGeometry x="55" y="46" width="40" height="40" as="geometry" />
        </mxCell>
        <mxCell id="W4bVx6RVuENENXrzzhZ2-57" value="" style="aspect=fixed;html=1;points=[];align=center;image;fontSize=17;image=img/lib/azure2/networking/Virtual_Router.svg;sketch=0;fillStyle=auto;fillColor=none;" vertex="1" parent="1">
          <mxGeometry x="876" y="331" width="88" height="88" as="geometry" />
        </mxCell>
        <mxCell id="W4bVx6RVuENENXrzzhZ2-58" value="" style="group;fontSize=17;" vertex="1" connectable="0" parent="1">
          <mxGeometry x="677" y="320" width="100" height="110" as="geometry" />
        </mxCell>
        <mxCell id="W4bVx6RVuENENXrzzhZ2-17" value="gate" style="sketch=0;shadow=0;dashed=0;html=1;labelPosition=center;verticalLabelPosition=bottom;verticalAlign=top;align=center;outlineConnect=0;shape=mxgraph.veeam.3d.virtual_machine;fontSize=17;" vertex="1" parent="W4bVx6RVuENENXrzzhZ2-58">
          <mxGeometry width="100" height="110" as="geometry" />
        </mxCell>
        <mxCell id="W4bVx6RVuENENXrzzhZ2-47" value="" style="image;html=1;image=img/lib/clip_art/general/Lock_128x128.png;sketch=0;fillStyle=auto;fillColor=none;fontSize=17;" vertex="1" parent="W4bVx6RVuENENXrzzhZ2-58">
          <mxGeometry x="50" y="40" width="50" height="50" as="geometry" />
        </mxCell>
        <mxCell id="W4bVx6RVuENENXrzzhZ2-60" value="" style="edgeStyle=none;rounded=0;html=1;jettySize=auto;orthogonalLoop=1;strokeColor=#404040;strokeWidth=2;fontColor=#000000;jumpStyle=none;endArrow=block;endFill=1;startArrow=block;startFill=1;fontSize=17;" edge="1" parent="1" source="W4bVx6RVuENENXrzzhZ2-57" target="W4bVx6RVuENENXrzzhZ2-22">
          <mxGeometry width="100" relative="1" as="geometry">
            <mxPoint x="647" y="420" as="sourcePoint" />
            <mxPoint x="747" y="420" as="targetPoint" />
          </mxGeometry>
        </mxCell>
        <mxCell id="W4bVx6RVuENENXrzzhZ2-62" value="" style="edgeStyle=none;rounded=0;html=1;jettySize=auto;orthogonalLoop=1;strokeColor=#404040;strokeWidth=2;fontColor=#000000;jumpStyle=none;endArrow=block;endFill=1;startArrow=block;startFill=1;fontSize=17;" edge="1" parent="1" source="W4bVx6RVuENENXrzzhZ2-57" target="W4bVx6RVuENENXrzzhZ2-23">
          <mxGeometry width="100" relative="1" as="geometry">
            <mxPoint x="647" y="420" as="sourcePoint" />
            <mxPoint x="747" y="420" as="targetPoint" />
          </mxGeometry>
        </mxCell>
        <mxCell id="W4bVx6RVuENENXrzzhZ2-63" value="" style="edgeStyle=none;rounded=0;html=1;jettySize=auto;orthogonalLoop=1;strokeColor=#404040;strokeWidth=2;fontColor=#000000;jumpStyle=none;endArrow=block;endFill=1;startArrow=block;startFill=1;fontSize=17;" edge="1" parent="1" source="W4bVx6RVuENENXrzzhZ2-57" target="W4bVx6RVuENENXrzzhZ2-24">
          <mxGeometry width="100" relative="1" as="geometry">
            <mxPoint x="647" y="420" as="sourcePoint" />
            <mxPoint x="747" y="420" as="targetPoint" />
          </mxGeometry>
        </mxCell>
        <mxCell id="W4bVx6RVuENENXrzzhZ2-64" value="" style="edgeStyle=none;rounded=0;html=1;jettySize=auto;orthogonalLoop=1;strokeColor=#404040;strokeWidth=2;fontColor=#000000;jumpStyle=none;endArrow=block;endFill=1;startArrow=block;startFill=1;fontSize=17;" edge="1" parent="1" source="W4bVx6RVuENENXrzzhZ2-57" target="W4bVx6RVuENENXrzzhZ2-31">
          <mxGeometry width="100" relative="1" as="geometry">
            <mxPoint x="647" y="420" as="sourcePoint" />
            <mxPoint x="747" y="420" as="targetPoint" />
          </mxGeometry>
        </mxCell>
        <mxCell id="W4bVx6RVuENENXrzzhZ2-65" value="" style="edgeStyle=none;rounded=0;html=1;jettySize=auto;orthogonalLoop=1;strokeColor=#404040;strokeWidth=2;fontColor=#000000;jumpStyle=none;endArrow=block;endFill=1;startArrow=block;startFill=1;fontSize=17;" edge="1" parent="1" source="W4bVx6RVuENENXrzzhZ2-17" target="W4bVx6RVuENENXrzzhZ2-57">
          <mxGeometry width="100" relative="1" as="geometry">
            <mxPoint x="647" y="420" as="sourcePoint" />
            <mxPoint x="747" y="420" as="targetPoint" />
          </mxGeometry>
        </mxCell>
        <mxCell id="W4bVx6RVuENENXrzzhZ2-66" value="" style="edgeStyle=none;rounded=0;html=1;jettySize=auto;orthogonalLoop=1;strokeColor=#404040;strokeWidth=2;fontColor=#000000;jumpStyle=none;endArrow=block;endFill=1;startArrow=block;startFill=1;fontSize=17;" edge="1" parent="1" source="W4bVx6RVuENENXrzzhZ2-21" target="W4bVx6RVuENENXrzzhZ2-17">
          <mxGeometry width="100" relative="1" as="geometry">
            <mxPoint x="647" y="420" as="sourcePoint" />
            <mxPoint x="747" y="420" as="targetPoint" />
          </mxGeometry>
        </mxCell>
        <mxCell id="W4bVx6RVuENENXrzzhZ2-68" value="cloud" style="dashed=0;outlineConnect=0;html=1;align=center;labelPosition=center;verticalLabelPosition=bottom;verticalAlign=top;shape=mxgraph.webicons.yandex;gradientColor=#DFDEDE;sketch=0;fillStyle=auto;fontSize=17;" vertex="1" parent="1">
          <mxGeometry x="627" y="95" width="100" height="100" as="geometry" />
        </mxCell>
        <mxCell id="W4bVx6RVuENENXrzzhZ2-70" value="victim" style="shape=image;html=1;verticalAlign=top;verticalLabelPosition=bottom;labelBackgroundColor=#ffffff;imageAspect=0;aspect=fixed;image=https://cdn1.iconfinder.com/data/icons/nuove/128x128/filesystems/www.png;dashed=1;sketch=0;fillStyle=auto;strokeWidth=2;fontSize=17;fillColor=none;" vertex="1" parent="1">
          <mxGeometry x="120" y="90" width="108" height="108" as="geometry" />
        </mxCell>
        <mxCell id="W4bVx6RVuENENXrzzhZ2-71" value="" style="edgeStyle=none;rounded=0;html=1;jettySize=auto;orthogonalLoop=1;strokeColor=#404040;strokeWidth=2;fontColor=#000000;jumpStyle=none;endArrow=block;endFill=1;startArrow=block;startFill=1;exitX=1;exitY=1;exitDx=0;exitDy=0;" edge="1" parent="1" source="W4bVx6RVuENENXrzzhZ2-70" target="W4bVx6RVuENENXrzzhZ2-21">
          <mxGeometry width="100" relative="1" as="geometry">
            <mxPoint x="280" y="190" as="sourcePoint" />
            <mxPoint x="200" y="310" as="targetPoint" />
          </mxGeometry>
        </mxCell>
      </root>
    </mxGraphModel>
  </diagram>
</mxfile>
